<svg width="600" height="450" viewBox="0 0 600 450" fill="none" xmlns="http://www.w3.org/2000/svg">
<rect width="600" height="450" fill="url(#paint0_linear_1_2)"/>
<circle cx="346.5" cy="226.5" r="43.5" fill="#FF8F79"/>
<circle cx="232" cy="167" r="29" fill="#A95662"/>
<path fill-rule="evenodd" clip-rule="evenodd" d="M370.69 270.031C370.722 270.02 370.753 270.008 370.784 270H370.878H370.972H371.003H371.065H371.097H371.159H371.19C371.21 270.008 371.233 270.02 371.253 270.031H371.284C371.339 270.047 371.39 270.07 371.44 270.094L371.44 270.094H371.472C371.495 270.113 371.515 270.133 371.534 270.156H371.565C371.612 270.195 371.651 270.234 371.69 270.281C371.749 270.328 371.8 270.379 371.847 270.438L395.69 292.656C395.995 292.922 396.108 293.348 395.979 293.73C395.847 294.113 395.499 294.379 395.097 294.406L384.909 295.281L391.003 308.594C391.222 309.094 390.999 309.68 390.503 309.906L386.128 311.906C385.886 312.023 385.604 312.035 385.351 311.941C385.097 311.848 384.894 311.652 384.784 311.406L378.94 297.906L371.69 304.719C371.401 304.992 370.976 305.07 370.612 304.914C370.245 304.758 370.007 304.398 370.003 304V271.156C369.999 271.105 369.999 271.051 370.003 271V270.969V270.938V270.844C370.011 270.801 370.022 270.758 370.034 270.719V270.656L370.065 270.625C370.073 270.605 370.085 270.582 370.097 270.562V270.531L370.128 270.5C370.155 270.457 370.187 270.414 370.222 270.375C370.229 270.355 370.241 270.332 370.253 270.312C370.272 270.289 370.292 270.27 370.315 270.25C370.347 270.227 370.378 270.207 370.409 270.188L370.44 270.156L370.472 270.125C370.491 270.113 370.515 270.102 370.534 270.094H370.565C370.604 270.07 370.647 270.051 370.69 270.031ZM392.69 292.594L372.003 273.281V301.688L378.628 295.469C378.866 295.25 379.198 295.16 379.515 295.23C379.831 295.297 380.093 295.516 380.222 295.812L386.222 309.656L388.784 308.5L382.503 294.812C382.37 294.52 382.386 294.18 382.55 293.902C382.71 293.621 382.995 293.438 383.315 293.406L392.69 292.594Z" fill="#D9D9D9"/>
<defs>
<linearGradient id="paint0_linear_1_2" x1="0" y1="0" x2="600" y2="450" gradientUnits="userSpaceOnUse">
<stop stop-color="#220022"/>
<stop offset="1" stop-color="#1B006E"/>
</linearGradient>
</defs>
</svg>
